<svg aria-hidden="true" style="position: absolute; width: 0; height: 0; overflow: hidden;" version="1.1" xmlns="http://www.w3.org/2000/svg" xmlns:xlink="http://www.w3.org/1999/xlink">
<defs>
<symbol id="icon-calendar" viewBox="0 0 32 32">
<path d="M24.296 25.6h-16.593v-13.2h16.593zM20.741 4v2.4h-9.482v-2.4h-2.37v2.4h-1.185c-1.316 0-2.37 1.068-2.37 2.4v16.8c0 0.637 0.25 1.247 0.694 1.697s1.047 0.703 1.676 0.703h16.593c0.629 0 1.232-0.253 1.676-0.703s0.694-1.061 0.694-1.697v-16.8c0-1.332-1.067-2.4-2.37-2.4h-1.185v-2.4zM21.926 17.2h-5.926v6h5.926v-6z"></path>
</symbol>
<symbol id="icon-check" viewBox="0 0 32 32">
<path d="M25.333 6.667v18.667h-18.667v-18.667h18.667zM25.333 4h-18.667c-1.467 0-2.667 1.2-2.667 2.667v18.667c0 1.467 1.2 2.667 2.667 2.667h18.667c1.467 0 2.667-1.2 2.667-2.667v-18.667c0-1.467-1.2-2.667-2.667-2.667z"></path>
</symbol>
<symbol id="icon-check_active" viewBox="0 0 32 32">
<path d="M25.333 4h-18.667c-1.48 0-2.667 1.2-2.667 2.667v18.667c0 1.467 1.187 2.667 2.667 2.667h18.667c1.48 0 2.667-1.2 2.667-2.667v-18.667c0-1.467-1.187-2.667-2.667-2.667zM13.333 22.667l-6.667-6.667 1.88-1.88 4.787 4.773 10.12-10.12 1.88 1.893-12 12z"></path>
</symbol>
<symbol id="icon-check_active_half" viewBox="0 0 32 32">
<path d="M6.667 4h18.667c1.48 0 2.667 1.2 2.667 2.667v18.667c0 1.467-1.187 2.667-2.667 2.667h-18.667c-1.48 0-2.667-1.2-2.667-2.667v-18.667c0-1.467 1.187-2.667 2.667-2.667zM21.333 14.667h-10.667v2.667h10.667v-2.667z"></path>
</symbol>
<symbol id="icon-check_active_line" viewBox="0 0 32 32">
<path d="M25.333 6.667v18.667h-18.667v-18.667h18.667zM25.333 4h-18.667c-1.467 0-2.667 1.2-2.667 2.667v18.667c0 1.467 1.2 2.667 2.667 2.667h18.667c1.467 0 2.667-1.2 2.667-2.667v-18.667c0-1.467-1.2-2.667-2.667-2.667z"></path>
<path d="M8 17.333l5.333 5.333 10.667-10.667-1.88-1.893-8.787 8.787-3.453-3.44-1.88 1.88z"></path>
</symbol>
<symbol id="icon-check_half" viewBox="0 0 32 32">
<path d="M21.333 16c0 2.946-2.388 5.333-5.333 5.333s-5.333-2.388-5.333-5.333c0-2.946 2.388-5.333 5.333-5.333s5.333 2.388 5.333 5.333z"></path>
<path d="M25.333 6.667v18.667h-18.667v-18.667h18.667zM25.333 4h-18.667c-1.467 0-2.667 1.2-2.667 2.667v18.667c0 1.467 1.2 2.667 2.667 2.667h18.667c1.467 0 2.667-1.2 2.667-2.667v-18.667c0-1.467-1.2-2.667-2.667-2.667z"></path>
</symbol>
<symbol id="icon-check_half_line" viewBox="0 0 32 32">
<path d="M26.667 4h-21.333c-0.354 0-0.693 0.14-0.943 0.391s-0.391 0.589-0.391 0.943v21.333c0 0.354 0.14 0.693 0.391 0.943s0.589 0.391 0.943 0.391h21.333c0.354 0 0.693-0.141 0.943-0.391s0.391-0.589 0.391-0.943v-21.333c0-0.354-0.141-0.693-0.391-0.943s-0.589-0.391-0.943-0.391zM6.667 25.333v-18.667h18.667v18.667h-18.667zM21.333 14.667h-10.667v2.667h10.667v-2.667z"></path>
</symbol>
<symbol id="icon-clear" viewBox="0 0 32 32">
<path d="M16 2.667c-7.373 0-13.333 5.96-13.333 13.333s5.96 13.333 13.333 13.333c7.373 0 13.333-5.96 13.333-13.333s-5.96-13.333-13.333-13.333zM22.667 20.787l-1.88 1.88-4.787-4.787-4.787 4.787-1.88-1.88 4.787-4.787-4.787-4.787 1.88-1.88 4.787 4.787 4.787-4.787 1.88 1.88-4.787 4.787 4.787 4.787z"></path>
</symbol>
<symbol id="icon-close" viewBox="0 0 32 32">
<path d="M16 14.115l9.428-9.428 1.885 1.885-9.428 9.428 9.428 9.428-1.885 1.885-9.428-9.428-9.428 9.428-1.885-1.885 9.428-9.428-9.428-9.428 1.885-1.885 9.428 9.428z"></path>
</symbol>
<symbol id="icon-Default" viewBox="0 0 32 32">
<path fill="#fff" style="fill: var(--color1, #fff)" d="M15.111 12.080v14.236l2.866-2.783 2.004 4.747 3.204-1.364-1.867-4.507h4.095l-10.303-10.328z"></path>
<path fill="#000" style="fill: var(--color2, #000)" d="M16 24.165v-9.945l7.258 7.274h-3.283l2.026 4.816-1.639 0.688-2.106-5.011-2.255 2.177z"></path>
</symbol>
<symbol id="icon-delete" viewBox="0 0 32 32">
<path d="M10.667 5.333v-2.667h10.667v2.667h5.333v2.667h-1.333v18.667c0 0.354-0.141 0.693-0.391 0.943s-0.589 0.391-0.943 0.391h-16c-0.354 0-0.693-0.141-0.943-0.391s-0.391-0.589-0.391-0.943v-18.667h-1.333v-2.667h5.333zM9.333 8v17.333h13.333v-17.333h-13.333zM12 12h2.667v10.667h-2.667v-10.667zM17.333 12h2.667v10.667h-2.667v-10.667z"></path>
</symbol>
<symbol id="icon-done" viewBox="0 0 32 32">
<path d="M12 21.6l-5.6-5.6-1.867 1.867 7.467 7.467 16-16-1.867-1.867-14.133 14.133z"></path>
</symbol>
<symbol id="icon-dots" viewBox="0 0 32 32">
<path d="M18 22.667c0 0.53-0.211 1.039-0.586 1.414s-0.884 0.586-1.414 0.586c-0.53 0-1.039-0.211-1.414-0.586s-0.586-0.884-0.586-1.414c0-0.53 0.211-1.039 0.586-1.414s0.884-0.586 1.414-0.586c0.53 0 1.039 0.211 1.414 0.586s0.586 0.884 0.586 1.414zM18 16c0 0.53-0.211 1.039-0.586 1.414s-0.884 0.586-1.414 0.586c-0.53 0-1.039-0.211-1.414-0.586s-0.586-0.884-0.586-1.414c0-0.53 0.211-1.039 0.586-1.414s0.884-0.586 1.414-0.586c0.53 0 1.039 0.211 1.414 0.586s0.586 0.884 0.586 1.414zM18 9.333c0 0.53-0.211 1.039-0.586 1.414s-0.884 0.586-1.414 0.586c-0.53 0-1.039-0.211-1.414-0.586s-0.586-0.884-0.586-1.414c0-0.53 0.211-1.039 0.586-1.414s0.884-0.586 1.414-0.586c0.53 0 1.039 0.211 1.414 0.586s0.586 0.884 0.586 1.414z"></path>
</symbol>
<symbol id="icon-drop_down_1" viewBox="0 0 24 24">
<path d="M16 18.6l-6.6-6.6-1.885 1.885 8.485 8.485 8.485-8.485-1.885-1.885-6.6 6.6z"></path>
</symbol>
<symbol id="icon-drop_down_2" viewBox="0 0 32 32">
<path d="M17.415 17.185l-6.6 6.6 1.885 1.885 8.485-8.485-8.485-8.485-1.885 1.885 6.6 6.6z"></path>
</symbol>
<symbol id="icon-drop_down_3" viewBox="0 0 32 32">
<path d="M16 15.771l6.6 6.6 1.885-1.885-8.485-8.485-8.485 8.485 1.885 1.885 6.6-6.6z"></path>
</symbol>
<symbol id="icon-drop_down_4" viewBox="0 0 32 32">
<path d="M14.585 17.185l6.6-6.6-1.885-1.885-8.485 8.485 8.485 8.485 1.885-1.885-6.6-6.6z"></path>
</symbol>
<symbol id="icon-eye-close" viewBox="0 0 32 32">
<path d="M12.456 25.043l-2.575-0.691 1.049-3.919c-1.571-0.579-3.031-1.423-4.316-2.496l-2.871 2.872-1.887-1.887 2.872-2.871c-1.621-1.942-2.711-4.271-3.161-6.76l2.624-0.479c1.012 5.603 5.913 9.853 11.808 9.853 5.893 0 10.796-4.251 11.808-9.853l2.624 0.477c-0.45 2.489-1.539 4.819-3.16 6.761l2.871 2.871-1.887 1.887-2.871-2.872c-1.285 1.073-2.745 1.917-4.316 2.496l1.049 3.92-2.575 0.689-1.051-3.92c-1.65 0.283-3.336 0.283-4.987 0l-1.051 3.92z"></path>
</symbol>
<symbol id="icon-eye-open" viewBox="0 0 32 32">
<path d="M16 4c7.189 0 13.171 5.173 14.425 12-1.253 6.827-7.236 12-14.425 12s-13.171-5.173-14.425-12c1.253-6.827 7.236-12 14.425-12zM16 25.333c2.719-0.001 5.358-0.924 7.484-2.62s3.613-4.063 4.219-6.714c-0.608-2.649-2.096-5.013-4.222-6.707s-4.763-2.615-7.481-2.615c-2.718 0-5.355 0.922-7.481 2.615s-3.614 4.058-4.222 6.707c0.605 2.651 2.093 5.018 4.219 6.714s4.765 2.619 7.484 2.62zM16 22c-1.591 0-3.117-0.632-4.243-1.757s-1.757-2.651-1.757-4.243c0-1.591 0.632-3.117 1.757-4.243s2.651-1.757 4.243-1.757c1.591 0 3.117 0.632 4.243 1.757s1.757 2.651 1.757 4.243c0 1.591-0.632 3.117-1.757 4.243s-2.651 1.757-4.243 1.757zM16 19.333c0.884 0 1.732-0.351 2.357-0.976s0.976-1.473 0.976-2.357-0.351-1.732-0.976-2.357c-0.625-0.625-1.473-0.976-2.357-0.976s-1.732 0.351-2.357 0.976c-0.625 0.625-0.976 1.473-0.976 2.357s0.351 1.732 0.976 2.357c0.625 0.625 1.473 0.976 2.357 0.976z"></path>
</symbol>
<symbol id="icon-filter" viewBox="0 0 32 32">
<path d="M9.333 8h13.333l-6.68 8.4-6.653-8.4zM5.667 7.48c2.693 3.453 7.667 9.853 7.667 9.853v8c0 0.733 0.6 1.333 1.333 1.333h2.667c0.733 0 1.333-0.6 1.333-1.333v-8c0 0 4.96-6.4 7.653-9.853 0.68-0.88 0.053-2.147-1.053-2.147h-18.547c-1.107 0-1.733 1.267-1.053 2.147z"></path>
</symbol>
<symbol id="icon-Pointer" viewBox="0 0 32 32">
<path fill="#fff" style="fill: var(--color1, #fff)" d="M15 15.75c0-0.414 0.336-0.75 0.75-0.75s0.75 0.336 0.75 0.75v4.75c0 0.276 0.224 0.5 0.5 0.5s0.5-0.224 0.5-0.5v-0.75c0-0.414 0.336-0.75 0.75-0.75s0.75 0.336 0.75 0.75v0.75c0 0.276 0.224 0.5 0.5 0.5s0.5-0.224 0.5-0.5v-0.25c0-0.414 0.336-0.75 0.75-0.75s0.75 0.336 0.75 0.75v0.25c0 0.276 0.224 0.5 0.5 0.5h0.25c0.138 0 0.25-0.112 0.25-0.25 0-0.414 0.336-0.75 0.75-0.75s0.75 0.336 0.75 0.75v2.5c0 0.001 0 0.002 0 0.003v1.247c0 2.485-2.015 4.5-4.5 4.5-1.547 0-2.911-0.78-3.721-1.969-0.715-0.814-1.83-1.695-2.793-2.456v0l-0-0c-0.306-0.242-0.597-0.471-0.854-0.683-0.479-0.393-0.547-1.125-0.138-1.59 0.704-0.8 1.906 0.285 2.634 1.063 0.008 0.009 0.016 0.017 0.025 0.026 0.123 0.132 0.348 0.047 0.348-0.133l-0-0.009v-7.5z"></path>
<path fill="#000" style="fill: var(--color2, #000)" d="M23.5 20.75v-1h-2v1h2zM24 23.253l-1-0.004v0.004h1zM15.779 27.031l0.826-0.563-0.035-0.051-0.041-0.046-0.751 0.66zM12.985 24.575l0.62-0.785-0.006-0.005-0.006-0.005-0.608 0.794zM12.985 24.575l-0.621 0.784 0.013 0.010 0.608-0.794zM12.985 24.575l0.621-0.784-0.001-0.001-0.62 0.785zM12.131 23.892v0zM11.993 22.303v0zM14.627 23.366v0zM15 23.25h-1v0.006l1-0.006zM14.652 23.392v0zM15 23.259h1l-0-0.006-1 0.006zM15.75 14c-0.966 0-1.75 0.784-1.75 1.75h2c0 0.138-0.112 0.25-0.25 0.25v-2zM17.5 15.75c0-0.966-0.784-1.75-1.75-1.75v2c-0.138 0-0.25-0.112-0.25-0.25h2zM17.5 20.5v-4.75h-2v4.75h2zM16.5 19.75v0.75h2v-0.75h-2zM18.25 18c-0.966 0-1.75 0.784-1.75 1.75h2c0 0.138-0.112 0.25-0.25 0.25v-2zM20 19.75c0-0.966-0.784-1.75-1.75-1.75v2c-0.138 0-0.25-0.112-0.25-0.25h2zM20 20.5v-0.75h-2v0.75h2zM19 20.25v0.25h2v-0.25h-2zM20.75 18.5c-0.966 0-1.75 0.784-1.75 1.75h2c0 0.138-0.112 0.25-0.25 0.25v-2zM22.5 20.25c0-0.966-0.784-1.75-1.75-1.75v2c-0.138 0-0.25-0.112-0.25-0.25h2zM22.5 20.5v-0.25h-2v0.25h2zM22.25 20h-0.25v2h0.25v-2zM23.5 20.75c0 0.138-0.112 0.25-0.25 0.25v-2c-0.966 0-1.75 0.784-1.75 1.75h2zM23.25 21c-0.138 0-0.25-0.112-0.25-0.25h2c0-0.966-0.784-1.75-1.75-1.75v2zM23 20.75v2.5h2v-2.5h-2zM23 23.25v-0.001l2 0.008c0-0.002 0-0.005 0-0.007h-2zM25 24.5v-1.247h-2v1.247h2zM19.5 30c3.038 0 5.5-2.462 5.5-5.5h-2c0 1.933-1.567 3.5-3.5 3.5v2zM14.952 27.594c0.988 1.45 2.656 2.406 4.548 2.406v-2c-1.202 0-2.263-0.605-2.895-1.532l-1.653 1.126zM12.365 25.36c0.987 0.78 2.020 1.6 2.662 2.331l1.502-1.32c-0.788-0.897-1.985-1.838-2.924-2.58l-1.24 1.569zM12.378 25.37v0zM12.364 25.359v0zM11.496 24.665c0.266 0.219 0.565 0.454 0.869 0.695l1.24-1.569c-0.308-0.243-0.591-0.467-0.839-0.671l-1.269 1.546zM11.242 21.642c-0.793 0.901-0.65 2.28 0.254 3.023l1.269-1.546c-0.019-0.016-0.037-0.044-0.040-0.084-0.004-0.038 0.008-0.061 0.019-0.073l-1.502-1.321zM15.358 22.683c-0.373-0.399-0.944-0.964-1.568-1.313-0.313-0.175-0.724-0.345-1.184-0.348-0.51-0.003-0.994 0.201-1.363 0.62l1.502 1.321c0.002-0.003-0.016 0.018-0.057 0.037s-0.077 0.022-0.093 0.022c-0.014-0 0.053-0 0.219 0.093 0.335 0.188 0.729 0.555 1.084 0.934l1.461-1.366zM15.384 22.711c-0.009-0.009-0.018-0.019-0.026-0.028l-1.461 1.366c0.008 0.008 0.015 0.016 0.023 0.024l1.465-1.362zM14 23.256l0 0.009 2-0.012v-0.009l-2 0.012zM14 15.75v7.5h2v-7.5h-2zM13.919 24.073c0.713 0.767 2.081 0.316 2.081-0.814h-2c0-0.77 0.916-1.051 1.384-0.548l-1.465 1.362zM19.5 22c0.828 0 1.5-0.672 1.5-1.5h-2c0-0.276 0.224-0.5 0.5-0.5v2zM17 22c0.828 0 1.5-0.672 1.5-1.5h-2c0-0.276 0.224-0.5 0.5-0.5v2zM20.5 20.5c0 0.828 0.672 1.5 1.5 1.5v-2c0.276 0 0.5 0.224 0.5 0.5h-2zM18 20.5c0 0.828 0.672 1.5 1.5 1.5v-2c0.276 0 0.5 0.224 0.5 0.5h-2zM22.25 22c0.69 0 1.25-0.56 1.25-1.25h-2c0-0.414 0.336-0.75 0.75-0.75v2zM15.5 20.5c0 0.828 0.672 1.5 1.5 1.5v-2c0.276 0 0.5 0.224 0.5 0.5h-2z"></path>
</symbol>
<symbol id="icon-radio" viewBox="0 0 32 32">
<path d="M22.667 16c0 3.682-2.985 6.667-6.667 6.667s-6.667-2.985-6.667-6.667c0-3.682 2.985-6.667 6.667-6.667s6.667 2.985 6.667 6.667z"></path>
<path d="M2.667 16c0-7.36 5.973-13.333 13.333-13.333s13.333 5.973 13.333 13.333c0 7.36-5.973 13.333-13.333 13.333s-13.333-5.973-13.333-13.333zM5.333 16c0 5.893 4.773 10.667 10.667 10.667s10.667-4.773 10.667-10.667c0-5.893-4.773-10.667-10.667-10.667s-10.667 4.773-10.667 10.667z"></path>
</symbol>
<symbol id="icon-radio_active" viewBox="0 0 32 32">
<path d="M16 2.667c-7.36 0-13.333 5.973-13.333 13.333s5.973 13.333 13.333 13.333c7.36 0 13.333-5.973 13.333-13.333s-5.973-13.333-13.333-13.333zM16 26.667c-5.893 0-10.667-4.773-10.667-10.667s4.773-10.667 10.667-10.667c5.893 0 10.667 4.773 10.667 10.667s-4.773 10.667-10.667 10.667z"></path>
</symbol>
<symbol id="icon-search" viewBox="0 0 32 32">
<path d="M23.711 21.855l5.622 5.621-1.857 1.857-5.621-5.622c-2.092 1.677-4.693 2.589-7.374 2.585-6.522 0-11.815-5.293-11.815-11.815s5.293-11.815 11.815-11.815c6.522 0 11.815 5.293 11.815 11.815 0.004 2.681-0.908 5.282-2.585 7.374zM21.078 20.881c1.666-1.713 2.596-4.010 2.593-6.399 0-5.078-4.113-9.189-9.189-9.189-5.078 0-9.189 4.111-9.189 9.189 0 5.076 4.111 9.189 9.189 9.189 2.39 0.004 4.686-0.927 6.399-2.593l0.197-0.197z"></path>
</symbol>
<symbol id="icon-send" viewBox="0 0 32 32">
<path d="M2.667 28l28-12-28-12v9.333l20 2.667-20 2.667v9.333z"></path>
</symbol>
<symbol id="icon-sort" viewBox="0 0 32 32">
<path d="M14.667 21.563v-16.229h2.667v16.229l7.152-7.152 1.885 1.885-10.371 10.371-10.371-10.371 1.885-1.885 7.152 7.152z"></path>
</symbol>
<symbol id="icon-sort-up" viewBox="0 0 32 32">
<path d="M17.333 10.437v16.229h-2.667v-16.229l-7.152 7.152-1.885-1.885 10.371-10.371 10.371 10.371-1.885 1.885-7.152-7.152z"></path>
</symbol>
</defs>
</svg>
